<?xml version="1.0" encoding="UTF-8"?>
<!DOCTYPE svg PUBLIC "-//W3C//DTD SVG 1.1//EN" "http://www.w3.org/Graphics/SVG/1.1/DTD/svg11.dtd">
<svg xmlns="http://www.w3.org/2000/svg" version="1.1" width="35px" height="35px" style="shape-rendering:geometricPrecision; text-rendering:geometricPrecision; image-rendering:optimizeQuality; fill-rule:evenodd; clip-rule:evenodd" xmlns:xlink="http://www.w3.org/1999/xlink">
<g><path style="opacity:1" fill="#c4170c" d="M -0.5,-0.5 C 332.833,-0.5 666.167,-0.5 999.5,-0.5C 999.5,332.833 999.5,666.167 999.5,999.5C 666.167,999.5 332.833,999.5 -0.5,999.5C -0.5,666.167 -0.5,332.833 -0.5,-0.5 Z"/></g>
<g><path style="opacity:1" fill="#fefefe" d="M 166.5,606.5 C 166.5,595.167 166.5,583.833 166.5,572.5C 200.167,572.5 233.833,572.5 267.5,572.5C 267.333,583.838 267.5,595.172 268,606.5C 269.944,629.773 282.111,644.606 304.5,651C 319.661,653.481 334.661,652.814 349.5,649C 363.843,644.321 372.01,634.488 374,619.5C 380.204,593.386 372.037,573.552 349.5,560C 339.955,555.061 330.289,550.394 320.5,546C 286.932,534.37 254.599,520.036 223.5,503C 183.292,474.741 164.959,435.908 168.5,386.5C 167.161,339.997 186.494,305.164 226.5,282C 248.33,270.042 271.664,263.042 296.5,261C 336.436,256.907 375.103,261.907 412.5,276C 456.84,297.476 480.007,332.976 482,382.5C 482.5,393.495 482.667,404.495 482.5,415.5C 448.5,415.5 414.5,415.5 380.5,415.5C 387.138,362.637 364.138,339.804 311.5,347C 297.382,350.125 287.548,358.292 282,371.5C 280.454,382.45 280.121,393.45 281,404.5C 283.408,417.823 290.575,427.656 302.5,434C 311.378,438.606 320.378,442.939 329.5,447C 354.814,455.882 379.814,465.549 404.5,476C 471.749,504.706 499.915,555.539 489,628.5C 484.244,665.201 466.077,693.035 434.5,712C 406.837,727.33 377.17,735.997 345.5,738C 309.749,741.032 275.082,736.365 241.5,724C 192.885,700.163 167.885,660.997 166.5,606.5 Z"/></g>
<g><path style="opacity:1" fill="#fefcfc" d="M 807.5,688.5 C 807.783,689.289 808.283,689.956 809,690.5C 809.5,547.5 809.667,404.5 809.5,261.5C 817.5,261.5 825.5,261.5 833.5,261.5C 833.5,419.833 833.5,578.167 833.5,736.5C 825.493,736.666 817.493,736.5 809.5,736C 720.879,593.88 632.879,451.38 545.5,308.5C 545.44,307.957 545.107,307.624 544.5,307.5C 543.5,450.498 543.167,593.498 543.5,736.5C 535.5,736.5 527.5,736.5 519.5,736.5C 519.5,577.833 519.5,419.167 519.5,260.5C 527.507,260.334 535.507,260.5 543.5,261C 632.121,403.12 720.121,545.62 807.5,688.5 Z"/></g>
<g><path style="opacity:1" fill="#f8e5e4" d="M 545.5,308.5 C 544.833,451.167 544.167,593.833 543.5,736.5C 543.167,593.498 543.5,450.498 544.5,307.5C 545.107,307.624 545.44,307.957 545.5,308.5 Z"/></g>
<g><path style="opacity:1" fill="#eaada9" d="M 833.5,261.5 C 825.5,261.5 817.5,261.5 809.5,261.5C 809.667,404.5 809.5,547.5 809,690.5C 808.283,689.956 807.783,689.289 807.5,688.5C 808.5,546.001 808.833,403.334 808.5,260.5C 817.017,260.174 825.35,260.507 833.5,261.5 Z"/></g>
<g><path style="opacity:1" fill="#eebebb" d="M 267.5,572.5 C 233.833,572.5 200.167,572.5 166.5,572.5C 166.5,583.833 166.5,595.167 166.5,606.5C 165.505,595.012 165.172,583.345 165.5,571.5C 199.671,571.168 233.671,571.502 267.5,572.5 Z"/></g>
</svg>
